<svg width="31" height="23" viewBox="0 0 31 23" fill="none" xmlns="http://www.w3.org/2000/svg">
<path d="M30.7549 3.24064V20.6999C30.7549 21.8346 29.836 22.7535 28.7013 22.7535H23.9075V11.1148L15.6919 17.2781L7.47629 11.1148V22.7547H2.68249C2.41271 22.7547 2.14556 22.7016 1.89633 22.5983C1.6471 22.495 1.42065 22.3436 1.22994 22.1528C1.03923 21.962 0.887995 21.7355 0.784866 21.4862C0.681738 21.2369 0.628742 20.9697 0.628907 20.6999V3.24064C0.628907 0.701275 3.52728 -0.748537 5.55827 0.775335L7.47629 2.21511L15.6919 8.37587L23.9075 2.21259L25.8255 0.775335C27.8553 -0.747282 30.7549 0.701275 30.7549 3.24064Z" fill="white"/>
</svg>
