<svg width="29" height="29" viewBox="0 0 29 29" fill="none" xmlns="http://www.w3.org/2000/svg">
<path d="M14.2575 7.01221C10.2502 7.01221 7.01795 10.2452 7.01795 14.2534C7.01795 18.2616 10.2502 21.4946 14.2575 21.4946C18.2648 21.4946 21.4971 18.2616 21.4971 14.2534C21.4971 10.2452 18.2648 7.01221 14.2575 7.01221ZM14.2575 18.9611C11.6679 18.9611 9.55085 16.8499 9.55085 14.2534C9.55085 11.6569 11.6616 9.54568 14.2575 9.54568C16.8534 9.54568 18.9642 11.6569 18.9642 14.2534C18.9642 16.8499 16.8471 18.9611 14.2575 18.9611ZM23.4818 6.71601C23.4818 7.65503 22.7257 8.40499 21.7932 8.40499C20.8544 8.40499 20.1046 7.64873 20.1046 6.71601C20.1046 5.78329 20.8607 5.02703 21.7932 5.02703C22.7257 5.02703 23.4818 5.78329 23.4818 6.71601ZM28.2767 8.4302C28.1696 6.16772 27.6529 4.16364 25.9958 2.51247C24.345 0.86131 22.3414 0.344534 20.0794 0.231095C17.7481 0.0987496 10.7606 0.0987496 8.42932 0.231095C6.17365 0.338231 4.17002 0.855008 2.51292 2.50617C0.855823 4.15734 0.345463 6.16142 0.232049 8.42389C0.0997336 10.7557 0.0997336 17.7448 0.232049 20.0766C0.339162 22.339 0.855823 24.3431 2.51292 25.9943C4.17002 27.6455 6.16735 28.1622 8.42932 28.2757C10.7606 28.408 17.7481 28.408 20.0794 28.2757C22.3414 28.1685 24.345 27.6518 25.9958 25.9943C27.6466 24.3431 28.1633 22.339 28.2767 20.0766C28.409 17.7448 28.409 10.762 28.2767 8.4302ZM25.2649 22.5785C24.7735 23.8138 23.822 24.7654 22.5808 25.2632C20.7221 26.0006 16.3116 25.8304 14.2575 25.8304C12.2035 25.8304 7.78665 25.9943 5.93423 25.2632C4.69928 24.7717 3.74787 23.8201 3.25011 22.5785C2.51292 20.7194 2.68304 16.3079 2.68304 14.2534C2.68304 12.1989 2.51922 7.78107 3.25011 5.92824C3.74157 4.69302 4.69298 3.74139 5.93423 3.24352C7.79295 2.50617 12.2035 2.67633 14.2575 2.67633C16.3116 2.67633 20.7284 2.51247 22.5808 3.24352C23.8157 3.73509 24.7672 4.68672 25.2649 5.92824C26.0021 7.78738 25.832 12.1989 25.832 14.2534C25.832 16.3079 26.0021 20.7257 25.2649 22.5785Z" fill="white"/>
</svg>
