<svg width="652" height="750" viewBox="0 0 652 750" fill="none" xmlns="http://www.w3.org/2000/svg">
<path d="M342.399 0.7251C383.324 0.1001 423.949 0.425098 464.549 0.100098C465.899 50.8751 486.499 96.5751 519.274 130.425L519.224 130.375C554.499 162.15 600.399 182.75 650.999 186.25L651.699 186.3V312.2C603.899 311 558.949 299.975 518.424 281.025L520.474 281.875C500.874 272.45 484.299 262.775 468.549 251.975L469.849 252.825C469.549 344.05 470.149 435.275 469.224 526.175C466.649 572.5 451.249 614.75 426.549 650.025L427.049 649.25C385.749 708.4 318.849 747.225 242.774 749.525H242.424C239.349 749.675 235.724 749.75 232.074 749.75C188.824 749.75 148.399 737.7 113.949 716.775L114.949 717.35C52.2487 679.625 8.9987 615.075 0.9987 540L0.898701 538.975C0.273701 523.35 -0.0263008 507.725 0.598699 492.425C12.8487 372.95 112.949 280.525 234.624 280.525C248.299 280.525 261.699 281.7 274.724 283.925L273.324 283.725C273.949 329.95 272.074 376.2 272.074 422.425C261.499 418.6 249.299 416.375 236.574 416.375C189.874 416.375 150.149 446.225 135.449 487.9L135.224 488.65C131.899 499.325 129.974 511.6 129.974 524.3C129.974 529.45 130.299 534.55 130.899 539.55L130.849 538.95C139.149 590.1 182.999 628.7 235.874 628.7C237.399 628.7 238.899 628.675 240.399 628.6H240.174C276.749 627.5 308.499 607.825 326.449 578.75L326.699 578.3C333.374 569 337.949 557.75 339.474 545.525L339.499 545.175C342.624 489.25 341.374 433.65 341.674 377.725C341.974 251.825 341.374 126.225 342.299 0.6501L342.399 0.7251Z" fill="white"/>
</svg>
