<svg width="29" height="21" viewBox="0 0 29 21" fill="none" xmlns="http://www.w3.org/2000/svg">
<path d="M28.2131 3.31649C27.8867 2.07412 26.9283 1.0991 25.7108 0.768852C23.5037 0.166016 14.6548 0.166016 14.6548 0.166016C14.6548 0.166016 5.80588 0.166016 3.59883 0.768852C2.38133 1.0991 1.42287 2.07412 1.09648 3.31649C0.505859 5.56534 0.505859 10.2517 0.505859 10.2517C0.505859 10.2517 0.505859 14.9381 1.09648 17.187C1.42287 18.4293 2.38133 19.3624 3.59883 19.6927C5.80588 20.2955 14.6548 20.2955 14.6548 20.2955C14.6548 20.2955 23.5037 20.2955 25.7108 19.6927C26.9283 19.3624 27.8867 18.4241 28.2131 17.187C28.8037 14.9381 28.8037 10.2517 28.8037 10.2517C28.8037 10.2517 28.8037 5.56534 28.2131 3.31649ZM11.7639 14.5083V5.99518L19.157 10.2517L11.7639 14.5083Z" fill="white"/>
</svg>
